# File created by Blade
# Date/Time:  Thu Jan 22 16:10:14 2015
# Frame Rate: 120.000 fps
#------------------------------------------------------
:FULLY-SPECIFIED
:DEGREES
2107
root 11.738404 25.415571 -2.248524 35.143838 26.581666 -15.492163
RightUpLeg -25.232492 -41.522047 -10.404629
RightLeg -7.212853 -0.000000 0.000000
RightFoot 1.951967 -29.794534 45.731783
RightToeBase 13.874339 -0.000000 -0.000000
LeftUpLeg -106.323019 12.750245 1.887600
LeftLeg 99.982639 -0.000000 -0.000000
LeftFoot -39.690826 11.361325 -17.754439
LeftToeBase 3.930739 -0.000000 -0.000000
Spine 47.393909 -0.282618 -48.437700
RightShoulder 2.057491 5.297729 -44.392939
RightArm 16.074692 30.454622 14.797984
RightForeArm 16.469803 -0.000000 38.908997
RightHand 18.619377 0.000000 -44.345468
RightHandThumb1 -24.326973 -0.000000 -32.862282
LeftShoulder -3.968276 22.957289 27.006177
LeftArm 69.168926 -44.054948 -73.714238
LeftForeArm 23.846817 -0.000000 16.066265
LeftHand -27.571142 -0.000000 95.103727
LeftHandThumb1 -26.253704 0.000000 33.147579
Head -25.097245 -2.620733 -2.327142
2108
root 11.741468 25.415964 -2.248354 35.224982 26.637254 -15.397310
RightUpLeg -25.199332 -41.515448 -10.514713
RightLeg -7.197471 -0.000000 0.000000
RightFoot 1.869856 -29.856035 45.746419
RightToeBase 13.800968 -0.000000 -0.000000
LeftUpLeg -106.374608 12.680539 1.777563
LeftLeg 99.962382 -0.000000 -0.000000
LeftFoot -39.650865 11.351052 -17.716591
LeftToeBase 3.846623 -0.000000 -0.000000
Spine 47.399422 -0.052225 -48.258997
RightShoulder 2.149767 5.734855 -44.671397
RightArm 17.860316 31.144464 15.727762
RightForeArm 15.669421 0.000000 39.621285
RightHand 18.555363 -0.000000 -44.466294
RightHandThumb1 -24.326973 -0.000000 -32.862282
LeftShoulder -3.780507 22.873096 27.061973
LeftArm 69.407329 -43.928415 -73.718986
LeftForeArm 23.850133 -0.000000 16.116907
LeftHand -27.382942 -0.000000 95.096948
LeftHandThumb1 -26.253704 0.000000 33.147579
Head -25.000097 -2.191258 -2.646472
2109
root 11.745425 25.417032 -2.245942 35.306853 26.693795 -15.290048
RightUpLeg -25.149518 -41.505468 -10.650208
RightLeg -7.177854 -0.000000 0.000000
RightFoot 1.732643 -29.910127 45.854628
RightToeBase 13.841914 -0.000000 -0.000000
LeftUpLeg -106.407993 12.605261 1.656828
LeftLeg 99.931506 -0.000000 -0.000000
LeftFoot -39.635822 11.352383 -17.665595
LeftToeBase 3.786256 -0.000000 -0.000000
Spine 47.464994 0.199067 -48.089684
RightShoulder 2.131398 6.035213 -44.895351
RightArm 19.831695 31.800224 16.666618
RightForeArm 15.057980 -0.000000 40.161792
RightHand 18.731545 -0.000000 -44.656210
RightHandThumb1 -24.326973 -0.000000 -32.862282
LeftShoulder -3.634585 22.676310 27.146517
LeftArm 69.505445 -43.740088 -73.653529
LeftForeArm 23.908933 -0.000000 16.228167
LeftHand -27.377219 -0.000000 95.071811
LeftHandThumb1 -26.253704 0.000000 33.147579
Head -25.039299 -1.984481 -2.906114
2110
root 11.748870 25.418085 -2.241610 35.381057 26.745108 -15.177266
RightUpLeg -25.084607 -41.483581 -10.808847
RightLeg -7.138728 -0.000000 0.000000
RightFoot 1.628909 -29.961863 45.905093
RightToeBase 13.738290 -0.000000 -0.000000
LeftUpLeg -106.429192 12.538633 1.537158
LeftLeg 99.908894 -0.000000 -0.000000
LeftFoot -39.614156 11.314078 -17.633609
LeftToeBase 3.750598 -0.000000 -0.000000
Spine 47.531745 0.444186 -47.942971
RightShoulder 2.127975 6.270191 -45.071181
RightArm 21.927937 32.449592 17.629391
RightForeArm 14.338154 -0.000000 40.586090
RightHand 18.871051 -0.000000 -44.807904
RightHandThumb1 -24.326973 -0.000000 -32.862282
LeftShoulder -3.491985 22.491032 27.239792
LeftArm 69.590406 -43.563915 -73.607914
LeftForeArm 23.978447 -0.000000 16.359185
LeftHand -27.390112 -0.000000 94.986277
LeftHandThumb1 -26.253704 0.000000 33.147579
Head -25.023485 -1.644160 -3.248423
2111
root 11.751434 25.420078 -2.235630 35.480536 26.792405 -15.059526
RightUpLeg -25.063646 -41.496792 -10.930054
RightLeg -7.105371 -0.000000 0.000000
RightFoot 1.458698 -29.990642 46.069945
RightToeBase 13.788103 -0.000000 -0.000000
LeftUpLeg -106.472562 12.486371 1.390485
LeftLeg 99.880710 -0.000000 -0.000000
LeftFoot -39.590795 11.280801 -17.580553
LeftToeBase 3.710771 -0.000000 -0.000000
Spine 47.569157 0.710260 -47.787667
RightShoulder 2.102861 6.232968 -45.147409
RightArm 24.163048 33.166292 18.512555
RightForeArm 13.696711 0.000000 40.902572
RightHand 18.810872 -0.000000 -45.005601
RightHandThumb1 -24.326973 -0.000000 -32.862282
LeftShoulder -3.333169 22.361275 27.369061
LeftArm 69.826687 -43.381509 -73.688982
LeftForeArm 24.086539 -0.000000 16.442657
LeftHand -27.466551 -0.000000 94.905299
LeftHandThumb1 -26.253704 0.000000 33.147579
Head -24.980884 -1.253084 -3.536034
2112
root 11.751777 25.421928 -2.227485 35.565175 26.853433 -14.957700
RightUpLeg -25.032793 -41.525273 -11.020809
RightLeg -7.085393 -0.000000 0.000000
RightFoot 1.333502 -29.986676 46.152546
RightToeBase 13.846305 -0.000000 -0.000000
LeftUpLeg -106.512788 12.440658 1.269570
LeftLeg 99.856293 -0.000000 -0.000000
LeftFoot -39.575120 11.186594 -17.574702
LeftToeBase 3.747487 -0.000000 -0.000000
Spine 47.610800 0.975847 -47.597283
RightShoulder 2.071397 6.284388 -45.251025
RightArm 26.464402 33.762763 19.506086
RightForeArm 12.895026 -0.000000 41.081176
RightHand 18.889461 0.000000 -45.136499
RightHandThumb1 -24.326973 -0.000000 -32.862282
LeftShoulder -3.139812 22.247635 27.500818
LeftArm 70.041808 -43.215887 -73.722956
LeftForeArm 24.119772 0.000000 16.475684
LeftHand -27.462030 -0.000000 94.809059
LeftHandThumb1 -26.253704 0.000000 33.147579
Head -24.875258 -0.750580 -3.928016
2113
root 11.752277 25.423880 -2.220200 35.649927 26.915497 -14.842317
RightUpLeg -24.999512 -41.560026 -11.129721
RightLeg -7.048538 -0.000000 0.000000
RightFoot 1.214822 -29.987153 46.219226
RightToeBase 13.804876 -0.000000 -0.000000
LeftUpLeg -106.546796 12.383347 1.140241
LeftLeg 99.832184 -0.000000 -0.000000
LeftFoot -39.538081 11.132580 -17.549516
LeftToeBase 3.691148 -0.000000 -0.000000
Spine 47.679199 1.203957 -47.452385
RightShoulder 2.126926 6.583016 -45.351725
RightArm 28.544022 34.104006 20.438078
RightForeArm 11.907853 -0.000000 41.368038
RightHand 18.699530 0.000000 -45.326370
RightHandThumb1 -24.326973 -0.000000 -32.862282
LeftShoulder -3.011927 22.137269 27.640735
LeftArm 70.232500 -43.026736 -73.762146
LeftForeArm 24.132305 -0.000000 16.498025
LeftHand -27.460498 -0.000000 94.676847
LeftHandThumb1 -26.253704 0.000000 33.147579
Head -24.778154 -0.122200 -4.337347
2114
root 11.751159 25.426566 -2.211001 35.744421 26.974223 -14.747581
RightUpLeg -24.984558 -41.572004 -11.209393
RightLeg -7.019961 -0.000000 0.000000
RightFoot 1.103011 -29.990596 46.256266
RightToeBase 13.783700 -0.000000 -0.000000
LeftUpLeg -106.591818 12.343687 1.029319
LeftLeg 99.805906 -0.000000 -0.000000
LeftFoot -39.518981 11.085353 -17.504131
LeftToeBase 3.660230 -0.000000 -0.000000
Spine 47.735052 1.497869 -47.216904
RightShoulder 2.084677 6.647679 -45.450455
RightArm 30.732821 34.582772 21.516011
RightForeArm 10.972497 -0.000000 41.669404
RightHand 18.713460 0.000000 -45.368378
RightHandThumb1 -24.326973 -0.000000 -32.862282
LeftShoulder -2.809092 21.939413 27.798260
LeftArm 70.375226 -42.802833 -73.738405
LeftForeArm 24.204869 -0.000000 16.531758
LeftHand -27.709941 0.000000 94.542582
LeftHandThumb1 -26.253704 0.000000 33.147579
Head -24.707650 0.495172 -4.765162
2115
root 11.748077 25.431725 -2.197186 35.826620 27.024640 -14.652922
RightUpLeg -24.945645 -41.572545 -11.295560
RightLeg -7.005944 -0.000000 0.000000
RightFoot 1.005188 -29.996185 46.239409
RightToeBase 13.818920 -0.000000 -0.000000
LeftUpLeg -106.619208 12.340858 0.890549
LeftLeg 99.773922 -0.000000 -0.000000
LeftFoot -39.504980 10.961272 -17.494341
LeftToeBase 3.686283 -0.000000 -0.000000
Spine 47.803827 1.617921 -47.141307
RightShoulder 2.139728 6.736377 -45.616900
RightArm 33.075111 35.084687 22.745636
RightForeArm 10.111327 0.000000 41.987398
RightHand 18.647953 -0.000000 -45.467431
RightHandThumb1 -24.326973 -0.000000 -32.862282
LeftShoulder -2.803649 21.855933 27.785216
LeftArm 70.421305 -42.664634 -73.519165
LeftForeArm 24.083877 0.000000 16.524282
LeftHand -27.737289 -0.000000 94.413816
LeftHandThumb1 -26.253704 0.000000 33.147579
Head -24.702490 1.351092 -5.371351
2116
root 11.745130 25.436142 -2.182345 35.927488 27.081731 -14.565419
RightUpLeg -24.921411 -41.568451 -11.367469
RightLeg -6.994737 -0.000000 0.000000
RightFoot 0.894566 -30.037522 46.257368
RightToeBase 13.790527 -0.000000 -0.000000
LeftUpLeg -106.670626 12.341235 0.750514
LeftLeg 99.746158 -0.000000 -0.000000
LeftFoot -39.502867 10.847901 -17.460301
LeftToeBase 3.730035 -0.000000 -0.000000
Spine 47.851230 1.892910 -46.924548
RightShoulder 2.064831 6.620411 -45.700237
RightArm 35.370077 35.502596 23.888199
RightForeArm 9.358200 -0.000000 42.305411
RightHand 18.647630 -0.000000 -45.426341
RightHandThumb1 -24.326973 -0.000000 -32.862282
LeftShoulder -2.623329 21.727047 27.927989
LeftArm 70.651403 -42.487165 -73.574854
LeftForeArm 24.127315 0.000000 16.532740
LeftHand -27.710891 -0.000000 94.312998
LeftHandThumb1 -26.253704 0.000000 33.147579
Head -24.630493 2.085104 -5.831641
2117
root 11.739565 25.443165 -2.165691 36.023086 27.162810 -14.503433
RightUpLeg -24.922174 -41.606702 -11.367535
RightLeg -6.986087 -0.000000 0.000000
RightFoot 0.779487 -30.016288 46.317176
RightToeBase 13.797484 -0.000000 -0.000000
LeftUpLeg -106.731338 12.355975 0.633605
LeftLeg 99.712287 -0.000000 -0.000000
LeftFoot -39.478334 10.709332 -17.419426
LeftToeBase 3.766812 -0.000000 -0.000000
Spine 47.904910 2.043808 -46.708217
RightShoulder 2.046938 6.543779 -45.898316
RightArm 37.782985 35.875127 25.189027
RightForeArm 8.804155 -0.000000 42.533458
RightHand 18.729840 0.000000 -45.740614
RightHandThumb1 -24.326973 -0.000000 -32.862282
LeftShoulder -2.496467 21.635482 27.912133
LeftArm 70.767804 -42.385287 -73.395231
LeftForeArm 24.000307 -0.000000 16.478849
LeftHand -27.644129 -0.000000 94.149909
LeftHandThumb1 -26.253704 0.000000 33.147579
Head -24.583595 3.030768 -6.488154
2118
root 11.734247 25.450712 -2.147716 36.154018 27.268710 -14.434502
RightUpLeg -24.945106 -41.669617 -11.341741
RightLeg -6.983408 -0.000000 0.000000
RightFoot 0.694112 -30.008460 46.330565
RightToeBase 13.839001 -0.000000 -0.000000
LeftUpLeg -106.814370 12.337595 0.537979
LeftLeg 99.668634 -0.000000 -0.000000
LeftFoot -39.458967 10.597869 -17.373733
LeftToeBase 3.773318 -0.000000 -0.000000
Spine 47.967451 2.216119 -46.445807
RightShoulder 1.975456 6.467287 -45.989825
RightArm 40.146044 36.111585 26.361021
RightForeArm 8.362670 -0.000000 42.748580
RightHand 18.809336 -0.000000 -45.976440
RightHandThumb1 -24.326973 -0.000000 -32.862282
LeftShoulder -2.327329 21.488581 27.955649
LeftArm 70.914182 -42.267460 -73.349738
LeftForeArm 23.981807 -0.000000 16.508928
LeftHand -27.687289 0.000000 94.098006
LeftHandThumb1 -26.253704 0.000000 33.147579
Head -24.551863 3.876900 -7.104082
2119
root 11.729593 25.459979 -2.129000 36.294853 27.383793 -14.336595
RightUpLeg -24.949009 -41.751143 -11.342177
RightLeg -6.982570 -0.000000 0.000000
RightFoot 0.535090 -29.998825 46.472351
RightToeBase 13.906613 -0.000000 -0.000000
LeftUpLeg -106.885092 12.303623 0.426369
LeftLeg 99.613848 -0.000000 -0.000000
LeftFoot -39.438211 10.432747 -17.352800
LeftToeBase 3.798529 -0.000000 -0.000000
Spine 48.024038 2.400166 -46.187267
RightShoulder 1.968254 6.576811 -46.098342
RightArm 42.256640 36.100120 27.436951
RightForeArm 7.890382 0.000000 42.960929
RightHand 18.863405 0.000000 -45.981773
RightHandThumb1 -24.326973 -0.000000 -32.862282
LeftShoulder -2.053946 21.388754 28.067865
LeftArm 71.069576 -42.212913 -73.380299
LeftForeArm 24.015983 0.000000 16.566686
LeftHand -27.681182 -0.000000 93.989138
LeftHandThumb1 -26.253704 0.000000 33.147579
Head -24.405285 4.676015 -7.700596
